<svg xmlns:xlink="http://www.w3.org/1999/xlink" xmlns="http://www.w3.org/2000/svg" class="css-ze2te4 css-qd6ojx" viewBox="0 0 70 66.50005340576172" width="110"  height="105" ><defs><linearGradient id="SvgjsLinearGradient13754"><stop id="SvgjsStop13755" stop-color="#834f2a" offset="0"></stop><stop id="SvgjsStop13756" stop-color="#dba173" offset="0.5"></stop><stop id="SvgjsStop13757" stop-color=" #834F2A" offset="1"></stop></linearGradient><linearGradient id="SvgjsLinearGradient13754"><stop id="SvgjsStop13755" stop-color="#834f2a" offset="0"></stop><stop id="SvgjsStop13756" stop-color="#dba173" offset="0.5"></stop><stop id="SvgjsStop13757" stop-color=" #834F2A" offset="1"></stop></linearGradient><linearGradient id="SvgjsLinearGradient13754"><stop id="SvgjsStop13755" stop-color="#834f2a" offset="0"></stop><stop id="SvgjsStop13756" stop-color="#dba173" offset="0.5"></stop><stop id="SvgjsStop13757" stop-color=" #834F2A" offset="1"></stop></linearGradient><linearGradient id="SvgjsLinearGradient13754"><stop id="SvgjsStop13755" stop-color="#834f2a" offset="0"></stop><stop id="SvgjsStop13756" stop-color="#dba173" offset="0.5"></stop><stop id="SvgjsStop13757" stop-color=" #834F2A" offset="1"></stop></linearGradient><linearGradient id="SvgjsLinearGradient13754"><stop id="SvgjsStop13755" stop-color="#834f2a" offset="0"></stop><stop id="SvgjsStop13756" stop-color="#dba173" offset="0.5"></stop><stop id="SvgjsStop13757" stop-color=" #834F2A" offset="1"></stop></linearGradient></defs><g transform="translate(-8.749994158744812, -10.499893188476562) scale(0.875)" stroke="url(&quot;#SvgjsLinearGradient13754&quot;)" fill="url(&quot;#SvgjsLinearGradient13754&quot;)"><g xmlns="http://www.w3.org/2000/svg" transform="translate(0,-952.36218)" stroke="url(&quot;#SvgjsLinearGradient13754&quot;)" fill="url(&quot;#SvgjsLinearGradient13754&quot;)"><path d="m 60.7828,964.36215 27.1809,0.8834 -27.1809,25.9958 z m -1.9745,1.4513 0,26.7845 -25.2681,0 c 8.6166,-8.7334 16.8796,-17.8103 25.2681,-26.7845 z m 27.7053,3.628 3.4864,1.1989 -12.5877,7.4768 z m -68.1835,2.9656 5.5226,0 12.8654,14.0705 -5.9854,6.1204 -12.4026,0 c 9e-4,-6.7347 0,-13.4597 0,-20.1909 z m -1.9746,1.2304 0,5.8364 -6.3555,0 z m 3.363,20.9796 38.627,0 -10.7675,29.43465 z m 39.0898,4.54286 0,41.20229 -12.5878,-6.8775 c 4.1972,-11.443 8.3886,-22.879 12.5878,-34.32479 z" style="text-indent:0;text-transform:none;direction:ltr;block-progression:tb;baseline-shift:baseline;color:;enable-background:accumulate;" fill="url(&quot;#SvgjsLinearGradient13754&quot;)" fill-opacity="1" stroke="none" marker="none" visibility="visible" display="inline" overflow="visible"></path></g></g></svg>