<svg xmlns:xlink="http://www.w3.org/1999/xlink" xmlns="http://www.w3.org/2000/svg" viewBox="0 0 370.4968516863235 50.82803171765545" preserveAspectRatio="xMidYMid meet" class="css-116ckqy" id="bbhddgcg" width="370.4968516863235"  height="50.82803171765545" ><defs id="SvgjsDefs3186"><linearGradient id="SvgjsLinearGradient3191"><stop id="SvgjsStop3192" stop-color="#834f2a" offset="0"></stop><stop id="SvgjsStop3193" stop-color="#dba173" offset="0.5"></stop><stop id="SvgjsStop3194" stop-color=" #834F2A" offset="1"></stop></linearGradient><linearGradient id="SvgjsLinearGradient3191"><stop id="SvgjsStop3192" stop-color="#834f2a" offset="0"></stop><stop id="SvgjsStop3193" stop-color="#dba173" offset="0.5"></stop><stop id="SvgjsStop3194" stop-color=" #834F2A" offset="1"></stop></linearGradient></defs><g id="SvgjsG3187" featurekey="symbolFeature-0" transform="matrix(0.6687893539209571,0,0,0.6687893539209571,-6.687889074558961,-8.025390607726054)" fill="#111111"><g xmlns="http://www.w3.org/2000/svg" transform="translate(0,-952.36218)" fill="#111111"><path d="m 60.7828,964.36215 27.1809,0.8834 -27.1809,25.9958 z m -1.9745,1.4513 0,26.7845 -25.2681,0 c 8.6166,-8.7334 16.8796,-17.8103 25.2681,-26.7845 z m 27.7053,3.628 3.4864,1.1989 -12.5877,7.4768 z m -68.1835,2.9656 5.5226,0 12.8654,14.0705 -5.9854,6.1204 -12.4026,0 c 9e-4,-6.7347 0,-13.4597 0,-20.1909 z m -1.9746,1.2304 0,5.8364 -6.3555,0 z m 3.363,20.9796 38.627,0 -10.7675,29.43465 z m 39.0898,4.54286 0,41.20229 -12.5878,-6.8775 c 4.1972,-11.443 8.3886,-22.879 12.5878,-34.32479 z" style="text-indent:0;text-transform:none;direction:ltr;block-progression:tb;baseline-shift:baseline;color:;enable-background:accumulate;" fill="url(&quot;#SvgjsLinearGradient3191&quot;)" fill-opacity="1" stroke="none" marker="none" visibility="visible" display="inline" overflow="visible"></path></g></g><g id="SvgjsG3188" featurekey="nameFeature-0" transform="matrix(1.346420884063928,0,0,1.346420884063928,70.0953793078099,-9.157048040673104)" fill="#111111"><path d="M16.5 24.78 c4.12 1.04 5.68 4.18 5.68 7.16 c0 5.62 -3.32 8.06 -9.76 8.06 l-8.92 0 c-0.36 0 -0.6 -0.24 -0.6 -0.6 l0 -26.8 c0 -0.36 0.24 -0.6 0.6 -0.6 l9.08 0 c6.52 0 8.22 3.5 8.22 6.5 c0 2.82 -1.16 5.26 -4.3 6.28 z M18.64 18.52 c0 -3.04 -2.1 -4.48 -6.24 -4.48 l-7.38 0 l0 9.92 l7.66 0 c3.86 0 5.96 -2.18 5.96 -5.44 z M12.18 37.96 c5.06 0 7.76 -1.36 7.76 -5.9 c0 -3.34 -2.12 -6.16 -7.48 -6.16 l-7.44 0 l0 12.06 l7.16 0 z M41.8615 28.560000000000002 l5.68 10.74 c0.22 0.42 0.02 0.7 -0.44 0.7 l-1.14 0 c-0.3 0 -0.54 -0.14 -0.7 -0.44 l-5.66 -10.76 l-0.6 0 l-8.44 0 l0 10.6 c0 0.36 -0.24 0.6 -0.6 0.6 l-0.92 0 c-0.36 0 -0.6 -0.24 -0.6 -0.6 l0 -26.8 c0 -0.36 0.24 -0.6 0.6 -0.6 l9.96 0 c6.52 0 9.26 3.12 9.26 8.4 c0 4.42 -1.92 7.34 -6.4 8.16 z M30.5615 26.759999999999998 l8.56 0 c4.04 0 7.02 -1.2 7.02 -6.36 s-2.98 -6.36 -7.02 -6.36 l-8.56 0 l0 12.72 z M73.063 14.04 l-8.16 0 l0 23.92 l8.16 0 c0.36 0 0.6 0.24 0.6 0.6 l0 0.84 c0 0.36 -0.24 0.6 -0.6 0.6 l-18.44 0 c-0.36 0 -0.6 -0.24 -0.6 -0.6 l0 -0.84 c0 -0.36 0.24 -0.6 0.6 -0.6 l8.16 0 l0 -23.92 l-8.16 0 c-0.36 0 -0.6 -0.24 -0.6 -0.6 l0 -0.84 c0 -0.36 0.24 -0.6 0.6 -0.6 l18.44 0 c0.36 0 0.6 0.24 0.6 0.6 l0 0.84 c0 0.36 -0.24 0.6 -0.6 0.6 z M102.3245 39.32 c0.18 0.4 -0.04 0.68 -0.48 0.68 l-0.86 0 c-0.32 0 -0.54 -0.12 -0.68 -0.48 l-2.4 -6.26 l-14.38 0 l0 -0.3 l-2.52 6.56 c-0.14 0.36 -0.36 0.48 -0.68 0.48 l-0.86 0 c-0.44 0 -0.64 -0.28 -0.48 -0.68 l10.36 -26.84 c0.12 -0.32 0.42 -0.48 0.74 -0.48 l1.18 0 c0.32 0 0.58 0.16 0.7 0.48 z M84.1845 31.240000000000002 l12.94 0 l-6.46 -16.84 z M127.42599999999999 12 c0.36 0 0.6 0.24 0.6 0.6 l0 26.8 c0 0.3 -0.18 0.52 -0.44 0.58 l0 0.02 l-1.74 0 c-0.32 0 -0.56 -0.12 -0.72 -0.4 l-14.86 -24.8 l0 24.6 c0 0.36 -0.24 0.6 -0.6 0.6 l-0.92 0 c-0.36 0 -0.6 -0.24 -0.6 -0.6 l0 -26.8 c0 -0.3 0.18 -0.52 0.44 -0.58 l0 -0.02 l1.72 0 c0.32 0 0.56 0.12 0.72 0.4 l14.86 24.76 l0 -24.56 c0 -0.36 0.24 -0.6 0.6 -0.6 l0.94 0 z M169.389 37.96 c0.36 0 0.6 0.24 0.6 0.6 l0 0.84 c0 0.36 -0.24 0.6 -0.6 0.6 l-15.48 0 l-0.12 0 l-0.12 0 l-0.92 0 c-0.36 0 -0.6 -0.24 -0.6 -0.6 l0 -26.8 c0 -0.36 0.24 -0.6 0.6 -0.6 l0.92 0 c0.36 0 0.6 0.24 0.6 0.6 l0 25.36 l15.12 0 z M193.69050000000001 37.96 c0.36 0 0.6 0.24 0.6 0.6 l0 0.84 c0 0.36 -0.24 0.6 -0.6 0.6 l-16.84 0 c-0.36 0 -0.6 -0.24 -0.6 -0.6 l0 -26.8 c0 -0.36 0.24 -0.6 0.6 -0.6 l16.8 0 c0.36 0 0.6 0.24 0.6 0.6 l0 0.84 c0 0.36 -0.24 0.6 -0.6 0.6 l-15.28 0 l0 10.04 l14.16 0 c0.36 0 0.6 0.24 0.6 0.6 l0 0.84 c0 0.36 -0.24 0.6 -0.6 0.6 l-14.16 0 l0 11.84 l15.32 0 z M222.592 12 c0.48 0 0.66 0.34 0.4 0.72 l-10.8 16.44 l0 10.24 c0 0.36 -0.24 0.6 -0.6 0.6 l-0.94 0 c-0.36 0 -0.6 -0.24 -0.6 -0.6 l0 -10.24 l-10.78 -16.44 c-0.26 -0.38 -0.08 -0.72 0.4 -0.72 l1.16 0 c0.32 0 0.54 0.12 0.72 0.4 l9.58 14.62 l9.56 -14.62 c0.18 -0.28 0.4 -0.4 0.72 -0.4 l1.18 0 z" fill="#111111"></path></g></svg>