<svg xmlns:xlink="http://www.w3.org/1999/xlink" xmlns="http://www.w3.org/2000/svg" width="369.5495842257771" height="47.92793347612434" viewBox="0 0 369.5495842257771 47.92793347612434" class="css-1j8o68f"><defs id="SvgjsDefs1158"><linearGradient id="SvgjsLinearGradient1163"><stop id="SvgjsStop1164" stop-color="#834f2a" offset="0"></stop><stop id="SvgjsStop1165" stop-color="#dba173" offset="0.5"></stop><stop id="SvgjsStop1166" stop-color=" #834F2A" offset="1"></stop></linearGradient><linearGradient id="SvgjsLinearGradient1163"><stop id="SvgjsStop1164" stop-color="#834f2a" offset="0"></stop><stop id="SvgjsStop1165" stop-color="#dba173" offset="0.5"></stop><stop id="SvgjsStop1166" stop-color=" #834F2A" offset="1"></stop></linearGradient><linearGradient id="SvgjsLinearGradient1163"><stop id="SvgjsStop1164" stop-color="#834f2a" offset="0"></stop><stop id="SvgjsStop1165" stop-color="#dba173" offset="0.5"></stop><stop id="SvgjsStop1166" stop-color=" #834F2A" offset="1"></stop></linearGradient><linearGradient id="SvgjsLinearGradient1163"><stop id="SvgjsStop1164" stop-color="#834f2a" offset="0"></stop><stop id="SvgjsStop1165" stop-color="#dba173" offset="0.5"></stop><stop id="SvgjsStop1166" stop-color=" #834F2A" offset="1"></stop></linearGradient></defs><g id="SvgjsG1159" featurekey="symbolFeature-0" transform="matrix(0.6306301971777858,0,0,0.6306301971777858,-6.306297761867103,-7.5674853849081885)" fill="url(&quot;#SvgjsLinearGradient1163&quot;)"><g xmlns="http://www.w3.org/2000/svg" transform="translate(0,-952.36218)" fill="url(&quot;#SvgjsLinearGradient1163&quot;)"><path d="m 60.7828,964.36215 27.1809,0.8834 -27.1809,25.9958 z m -1.9745,1.4513 0,26.7845 -25.2681,0 c 8.6166,-8.7334 16.8796,-17.8103 25.2681,-26.7845 z m 27.7053,3.628 3.4864,1.1989 -12.5877,7.4768 z m -68.1835,2.9656 5.5226,0 12.8654,14.0705 -5.9854,6.1204 -12.4026,0 c 9e-4,-6.7347 0,-13.4597 0,-20.1909 z m -1.9746,1.2304 0,5.8364 -6.3555,0 z m 3.363,20.9796 38.627,0 -10.7675,29.43465 z m 39.0898,4.54286 0,41.20229 -12.5878,-6.8775 c 4.1972,-11.443 8.3886,-22.879 12.5878,-34.32479 z" style="text-indent:0;text-transform:none;direction:ltr;block-progression:tb;baseline-shift:baseline;color:;enable-background:accumulate;" fill="url(&quot;#SvgjsLinearGradient1163&quot;)" fill-opacity="1" stroke="none" marker="none" visibility="visible" display="inline" overflow="visible"></path></g></g><g id="SvgjsG1160" featurekey="nameFeature-0" transform="matrix(1.2262206674477736,0,0,1.2262206674477736,66.49754781231233,-7.0131345674565875)" fill="#FFFFFF"><path d="M28.571 15.713999999999999 l0 6.9714 l-3.0286 3.0286 l3.0286 3.0286 l0 6.9714 l-4.2857 4.2857 l-21.429 0 l0 -28.571 l21.429 0 z M21.143 22.571 l0 -4.8571 l-10.857 0 l0 4.8571 l10.857 0 z M21.143 33.7143 l0 -4.8571 l-10.857 0 l0 4.8571 l10.857 0 z M60.85671428571429 15.713999999999999 l0 10 l-4.2857 4.2857 l4.2857 6.5714 l0 3.4286 l-6.8571 0 l-5.9429 -9.7143 l-5.4857 0 l0 9.7143 l-7.4286 0 l0 -28.571 l21.429 0 z M53.428714285714285 24 l0 -6.2857 l-10.857 0 l0 6.2857 l10.857 0 z M66.57142857142857 40 l0 -5.7143 l2.2857 0 l0 -17.143 l-2.2857 0 l0 -5.7143 l12 0 l0 5.7143 l-2.2857 0 l0 17.143 l2.2857 0 l0 5.7143 l-12 0 z M84.28567142857143 40 l0 -24.286 l4.2857 -4.2857 l16.571 0 l4.2857 4.2857 l0 24.286 l-7.4286 0 l0 -8 l-10.286 0 l0 8 l-7.4286 0 z M91.71457142857143 25.714 l10.286 0 l0 -8 l-10.286 0 l0 8 z M133.71385714285714 11.428999999999998 l7.4286 0 l0 28.571 l-6.5714 0 l-11.143 -16 l0 16 l-7.4286 0 l0 -28.571 l6.5714 0 l11.143 15.886 l0 -15.886 z M162.8571 35.7143 l0 -24.286 l7.4286 0 l0 22.286 l15.429 0 l0 6.2857 l-18.571 0 z M215.143 17.714 l-16.857 0 l0 4.8571 l14.571 0 l0 6.2857 l-14.571 0 l0 4.8571 l16.857 0 l0 6.2857 l-20 0 l-4.2857 -4.2857 l0 -24.286 l24.286 0 l0 6.2857 z M247.14314285714286 11.428999999999998 l0 3.4286 l-9.7143 15.714 l0 9.4286 l-7.4286 0 l0 -9.4857 l-9.7143 -15.657 l0 -3.4286 l6.5714 0 l6.8571 11.657 l6.8571 -11.657 l6.5714 0 z" fill="#FFFFFF"></path></g></svg>