<svg xmlns:xlink="http://www.w3.org/1999/xlink" xmlns="http://www.w3.org/2000/svg" viewBox="0 0 279.552034000973 95.364988099726" height="95.364988099726" width="279.552034000973" style="width: 279.552px; height: 95.365px; position: absolute; top: 50%; left: 50%; transform: translate(-50%, -50%) scale(0.786973); z-index: 0; cursor: pointer;"><defs id="SvgjsDefs2739"><linearGradient id="SvgjsLinearGradient2748"><stop id="SvgjsStop2749" stop-color="#834f2a" offset="0"></stop><stop id="SvgjsStop2750" stop-color="#dba173" offset="0.5"></stop><stop id="SvgjsStop2751" stop-color=" #834F2A" offset="1"></stop></linearGradient><linearGradient id="SvgjsLinearGradient2748"><stop id="SvgjsStop2749" stop-color="#834f2a" offset="0"></stop><stop id="SvgjsStop2750" stop-color="#dba173" offset="0.5"></stop><stop id="SvgjsStop2751" stop-color=" #834F2A" offset="1"></stop></linearGradient><linearGradient id="SvgjsLinearGradient2748"><stop id="SvgjsStop2749" stop-color="#834f2a" offset="0"></stop><stop id="SvgjsStop2750" stop-color="#dba173" offset="0.5"></stop><stop id="SvgjsStop2751" stop-color=" #834F2A" offset="1"></stop></linearGradient><linearGradient id="SvgjsLinearGradient2748"><stop id="SvgjsStop2749" stop-color="#834f2a" offset="0"></stop><stop id="SvgjsStop2750" stop-color="#dba173" offset="0.5"></stop><stop id="SvgjsStop2751" stop-color=" #834F2A" offset="1"></stop></linearGradient></defs><g id="SvgjsG2740" featurekey="symbolGroupContainer" transform="matrix(0.9004110316149103,0,0,0.9004110316149103,0.022588645815321152,0.0000076267070604108575)" fill="#8A0917"><path xmlns="http://www.w3.org/2000/svg" d="M101.3 44.9l-.5-2.1a48.1 48.1 0 0 0-1.3-6.1c-.3-1.1-.7-2.2-1.1-3.3l-.6-1.6-.7-1.6A50.9 50.9 0 0 0 78.7 8.5a50.5 50.5 0 0 0-20.6-8 55.7 55.7 0 0 0-7.4-.5A50.7 50.7 0 0 0 4.3 30.2l-.7 1.6-.6 1.6c-.4 1.1-.8 2.2-1.1 3.3a50.1 50.1 0 0 0-1.4 6.7 51.4 51.4 0 0 0-.2 13.1 53 53 0 0 0 1.4 7.3l.3 1.5a50.6 50.6 0 0 0 5 13.9 52.4 52.4 0 0 0 4 6.3 55.9 55.9 0 0 0 4.9 5.6A50.7 50.7 0 0 0 70 102.5l1.6-.7 1.6-.7 3.1-1.6a50.1 50.1 0 0 0 5.7-3.6 51.5 51.5 0 0 0 9.4-9.1 50.6 50.6 0 0 0 6.5-10.6 51.7 51.7 0 0 0 3.5-11.1 51.1 51.1 0 0 0-.1-20.2zm-.8-1.5a52.2 52.2 0 0 1 .2 13.1 50.3 50.3 0 0 1-2.9 12 51.5 51.5 0 0 1-5.3 10.3l-.3.4a45.4 45.4 0 0 0 2.8-5.1c.5-1 .8-2 1.2-3s.7-2 1-3a46.3 46.3 0 0 0 1.2-6.1c.1-1 .3-2 .3-3.1s.1-1 .1-1.5v-1.5c0-1 0-2-.1-3s-.1-2-.3-3a46.5 46.5 0 0 0-2.7-11.1 47.5 47.5 0 0 0-4.9-9.5 47 47 0 0 0-10.2-10.9 46.8 46.8 0 0 0-53.8-7.1l4.1-2.1a51.6 51.6 0 0 1 11-3.6 50.9 50.9 0 0 1 20.1.2 50 50 0 0 1 14.6 5.5 48.2 48.2 0 0 1 8.3 5.7l2 1.8.7.6.6.7 1.8 2a48.1 48.1 0 0 1 5.8 8.2 50.6 50.6 0 0 1 4.1 9.7c.3 1.1.5 2.3.6 3.4zM2.3 65.2A50.7 50.7 0 0 1 3 42.3l-.3 1.4A47 47 0 0 0 5 69.8c.4 1 .8 2 1.3 3s.9 1.9 1.5 2.8a46.3 46.3 0 0 0 3.4 5.3l1.9 2.4 1 1.2 1 1.1 2.2 2.1 2.3 1.9 2.5 1.8a45.4 45.4 0 0 0 4.1 3 47.3 47.3 0 0 0 6.9 3.7A49.3 49.3 0 0 1 23 93 51 51 0 0 1 8.7 78.8a51.6 51.6 0 0 1-5.3-10.3q-.5-1.4-1-2.9zm75.2 28.2a45.9 45.9 0 0 1-12 5.6 47.2 47.2 0 0 1-6.6 1.4 50.5 50.5 0 0 1-6.7.5A45.7 45.7 0 0 1 35 97.5l4.5 1.1a47.1 47.1 0 0 0 18.6-.2 47.4 47.4 0 0 0 13.4-5.1A44.2 44.2 0 0 0 79 88l1.8-1.6.6-.6.6-.6 1.7-1.8a44.3 44.3 0 0 0 5.4-7.5 47.8 47.8 0 0 0 5.2-13.4 47.2 47.2 0 0 0 .3-18.7 46 46 0 0 0-9.1-20.1c-.9-1.1-1.8-2.2-2.8-3.3a46.2 46.2 0 0 1 7.9 9.1 47.1 47.1 0 0 1 4.7 9.5 45.9 45.9 0 0 1 2.6 11c.1 1 .2 1.9.2 2.9s.1 2 0 3v1.5c0 .5-.1 1-.1 1.5s-.2 2-.3 3a45.5 45.5 0 0 1-1.3 6c-.3 1-.6 2-1 3s-.7 2-1.2 2.9a46 46 0 0 1-16.7 19.6zm-9.3-81.6l2.5 1.3a44.9 44.9 0 0 1 5.1 3.3l2.3 1.9 1.1 1 1.1 1 2.1 2.1 1.9 2.2a45.5 45.5 0 0 1 5.9 9.5 48.1 48.1 0 0 1 3.3 10 46.3 46.3 0 0 1 .1 18.3 45.4 45.4 0 0 1-10.1 20.9l-1.6 1.8-.6.6-.6.6-1.8 1.6a44.1 44.1 0 0 1-7.5 5.3 44.6 44.6 0 0 1-13.4 5 46.4 46.4 0 0 1-18.4 0 47 47 0 0 1-9.4-3l-3.2-2a46.2 46.2 0 0 1-16.5-19.5c-.5-.9-.8-1.9-1.2-2.9s-.7-2-.9-3a45 45 0 0 1-1.3-6c-.1-1-.3-2-.3-3s-.1-1-.1-1.5v-4.4c0-1 .1-1.9.2-2.9a45.6 45.6 0 0 1 2.5-10.9 48.1 48.1 0 0 1 4.7-9.4 46.3 46.3 0 0 1 12.9-13 45.4 45.4 0 0 1 22-7.6h6.5a44 44 0 0 1 9.1 1.6zm-3.6-1.3a44.2 44.2 0 0 0-9.1-1.6h-6.6a44.2 44.2 0 0 0-9.1 1.5 47.9 47.9 0 0 0-13.1 5.8 47.2 47.2 0 0 0-13.4 13 46.6 46.6 0 0 0 3.2 56.7l-.8-.8-1-1.1-1-1.1-1.9-2.4a45.4 45.4 0 0 1-3.3-5.2c-.5-.9-1-1.8-1.4-2.8s-.9-1.9-1.2-2.9a45.9 45.9 0 0 1 2.3-38.2 47.5 47.5 0 0 1 3.6-5.7 50.6 50.6 0 0 1 4.4-5.1A45.6 45.6 0 0 1 39.6 8.3 46.2 46.2 0 0 1 65 10.4l1.5.6zM.5 56.5a51.5 51.5 0 0 1 .2-13.1 50 50 0 0 1 1.4-6.6c.3-1.1.7-2.2 1.1-3.3l.6-1.6.7-1.6a50.4 50.4 0 0 1 92.2 0l.7 1.6.6 1.6c.4 1.1.8 2.2 1 3.3s.4 1.5.6 2.3a50.7 50.7 0 0 0-3.9-8.8 48.3 48.3 0 0 0-5.8-8.2l-1.8-2-.6-.7-.7-.6-2-1.8a48.3 48.3 0 0 0-8.2-5.8 50.1 50.1 0 0 0-14.5-5.6 51.2 51.2 0 0 0-20.2-.1A51.8 51.8 0 0 0 30.8 9 50.5 50.5 0 0 0 7.3 30.7c-.6 1-1.1 2-1.6 3.1L5 35.3l-.7 1.6a51 51 0 0 0-2.9 25 54 54 0 0 1-.9-5.4zm100.8 8.6a51.5 51.5 0 0 1-3.6 11 50.4 50.4 0 0 1-6.5 10.6 51.5 51.5 0 0 1-9.4 9.1 50 50 0 0 1-5.7 3.7l-3 1.5-1.6.7-1.6.7A50.5 50.5 0 0 1 2.7 67.2l.5 1.4a51.8 51.8 0 0 0 5.4 10.3 51.1 51.1 0 0 0 14.3 14.2 49.6 49.6 0 0 0 11.2 5.5l4.4 1.6a48.7 48.7 0 0 0 6.7 1.5 51.5 51.5 0 0 0 6.9.5 46.8 46.8 0 0 0 38.2-19.9c.9-1.1 1.7-2.2 2.5-3.4a51.8 51.8 0 0 0 5.3-10.3 50.6 50.6 0 0 0 2.9-24.7l.2 1a51 51 0 0 1 .1 20.2z" fill="#8A0917"></path></g><g id="SvgjsG2741" featurekey="symbolFeature-0" transform="matrix(0.7330401487542566,0,0,0.7330401487542566,9.669603406028372,11.203607697388954)" fill="url(&quot;#SvgjsLinearGradient2748&quot;)"><g xmlns="http://www.w3.org/2000/svg" transform="translate(0,-952.36218)" fill="url(&quot;#SvgjsLinearGradient2748&quot;)"><path d="m 60.7828,964.36215 27.1809,0.8834 -27.1809,25.9958 z m -1.9745,1.4513 0,26.7845 -25.2681,0 c 8.6166,-8.7334 16.8796,-17.8103 25.2681,-26.7845 z m 27.7053,3.628 3.4864,1.1989 -12.5877,7.4768 z m -68.1835,2.9656 5.5226,0 12.8654,14.0705 -5.9854,6.1204 -12.4026,0 c 9e-4,-6.7347 0,-13.4597 0,-20.1909 z m -1.9746,1.2304 0,5.8364 -6.3555,0 z m 3.363,20.9796 38.627,0 -10.7675,29.43465 z m 39.0898,4.54286 0,41.20229 -12.5878,-6.8775 c 4.1972,-11.443 8.3886,-22.879 12.5878,-34.32479 z" style="text-indent:0;text-transform:none;direction:ltr;block-progression:tb;baseline-shift:baseline;color:;enable-background:accumulate;" fill="url(&quot;#SvgjsLinearGradient2748&quot;)" fill-opacity="1" stroke="none" marker="none" visibility="visible" display="inline" overflow="visible"></path></g></g><g id="SvgjsG2742" featurekey="nameFeature-0" transform="matrix(0.6858823306195897,0,0,0.6858823306195897,110.04091536446296,20.1618011736681)" fill="#FFFFFF"><path d="M28.571 15.713999999999999 l0 6.9714 l-3.0286 3.0286 l3.0286 3.0286 l0 6.9714 l-4.2857 4.2857 l-21.429 0 l0 -28.571 l21.429 0 z M21.143 22.571 l0 -4.8571 l-10.857 0 l0 4.8571 l10.857 0 z M21.143 33.7143 l0 -4.8571 l-10.857 0 l0 4.8571 l10.857 0 z M60.85671428571429 15.713999999999999 l0 10 l-4.2857 4.2857 l4.2857 6.5714 l0 3.4286 l-6.8571 0 l-5.9429 -9.7143 l-5.4857 0 l0 9.7143 l-7.4286 0 l0 -28.571 l21.429 0 z M53.428714285714285 24 l0 -6.2857 l-10.857 0 l0 6.2857 l10.857 0 z M66.57142857142857 40 l0 -5.7143 l2.2857 0 l0 -17.143 l-2.2857 0 l0 -5.7143 l12 0 l0 5.7143 l-2.2857 0 l0 17.143 l2.2857 0 l0 5.7143 l-12 0 z M84.28567142857143 40 l0 -24.286 l4.2857 -4.2857 l16.571 0 l4.2857 4.2857 l0 24.286 l-7.4286 0 l0 -8 l-10.286 0 l0 8 l-7.4286 0 z M91.71457142857143 25.714 l10.286 0 l0 -8 l-10.286 0 l0 8 z M133.71385714285714 11.428999999999998 l7.4286 0 l0 28.571 l-6.5714 0 l-11.143 -16 l0 16 l-7.4286 0 l0 -28.571 l6.5714 0 l11.143 15.886 l0 -15.886 z M162.8571 35.7143 l0 -24.286 l7.4286 0 l0 22.286 l15.429 0 l0 6.2857 l-18.571 0 z M215.143 17.714 l-16.857 0 l0 4.8571 l14.571 0 l0 6.2857 l-14.571 0 l0 4.8571 l16.857 0 l0 6.2857 l-20 0 l-4.2857 -4.2857 l0 -24.286 l24.286 0 l0 6.2857 z M247.14314285714286 11.428999999999998 l0 3.4286 l-9.7143 15.714 l0 9.4286 l-7.4286 0 l0 -9.4857 l-9.7143 -15.657 l0 -3.4286 l6.5714 0 l6.8571 11.657 l6.8571 -11.657 l6.5714 0 z" fill="#FFFFFF"></path></g><g id="SvgjsG2743" featurekey="sloganFeature-0" transform="matrix(0.6520428970522232,0,0,0.6520428970522232,111.53431063907281,54.27435763608692)" fill="#FFFFFF"><path d="M14.857 5.714 l3.4286 0 l0 1.7143 l-3.4857 12.571 l-3.4286 0 l-1.8571 -6.7429 l-1.8571 6.7429 l-3.4286 0 l-3.5143 -12.571 l0 -1.7143 l3.4286 0 l2.0857 8.4571 l2.0571 -8.4571 l2.4286 0 l2.0857 8.4571 z M33.85671428571428 8.857 l-8.4286 0 l0 2.4286 l7.2857 0 l0 3.1429 l-7.2857 0 l0 2.4286 l8.4286 0 l0 3.1429 l-10 0 l-2.1429 -2.1429 l0 -12.143 l12.143 0 l0 3.1429 z M50.85742857142857 7.856999999999999 l0 3.4857 l-1.5143 1.5143 l1.5143 1.5143 l0 3.4857 l-2.1429 2.1429 l-10.714 0 l0 -14.286 l10.714 0 z M47.14242857142857 11.2857 l0 -2.4286 l-5.4286 0 l0 2.4286 l5.4286 0 z M47.14242857142857 16.8571 l0 -2.4286 l-5.4286 0 l0 2.4286 l5.4286 0 z M73.857 5.714 l2.1429 2.1429 l0 10 l-2.1429 2.1429 l-10.429 0 l0 -14.286 l10.429 0 z M72.286 16.8571 l0 -8 l-5.1429 0 l0 8 l5.1429 0 z M92.28528571428572 8.857 l-8.4286 0 l0 2.4286 l7.2857 0 l0 3.1429 l-7.2857 0 l0 2.4286 l8.4286 0 l0 3.1429 l-10 0 l-2.1429 -2.1429 l0 -12.143 l12.143 0 l0 3.1429 z M105.714 5.714 l3.4286 0 l0 1.7143 l-4.7714 12.571 l-3.8571 0 l-4.8 -12.571 l0 -1.7143 l3.4286 0 l3.2857 9.2857 z M124.71385714285714 8.857 l-8.4286 0 l0 2.4286 l7.2857 0 l0 3.1429 l-7.2857 0 l0 2.4286 l8.4286 0 l0 3.1429 l-10 0 l-2.1429 -2.1429 l0 -12.143 l12.143 0 l0 3.1429 z M128.8571714285714 17.8571 l0 -12.143 l3.7143 0 l0 11.143 l7.7143 0 l0 3.1429 l-9.2857 0 z M154.14271428571428 5.714 l2.1429 2.1429 l0 10 l-2.1429 2.1429 l-8.2857 0 l-2.1429 -2.1429 l0 -10 l2.1429 -2.1429 l8.2857 0 z M152.57171428571428 16.8571 l0 -8 l-5.1429 0 l0 8 l5.1429 0 z M160.4286 20 l0 -14.286 l10.429 0 l2.1429 2.1429 l0 6 l-2.1429 2.1429 l-6.7143 0 l0 4 l-3.7143 0 z M164.1429 12.857099999999999 l5.1429 0 l0 -4 l-5.1429 0 l0 4 z M189.28528571428572 8.857 l-8.4286 0 l0 2.4286 l7.2857 0 l0 3.1429 l-7.2857 0 l0 2.4286 l8.4286 0 l0 3.1429 l-10 0 l-2.1429 -2.1429 l0 -12.143 l12.143 0 l0 3.1429 z M206.286 7.856999999999999 l0 5 l-2.1429 2.1429 l2.1429 3.2857 l0 1.7143 l-3.4286 0 l-2.9714 -4.8571 l-2.7429 0 l0 4.8571 l-3.7143 0 l0 -14.286 l10.714 0 z M202.571 12 l0 -3.1429 l-5.4286 0 l0 3.1429 l5.4286 0 z" fill="#FFFFFF"></path></g></svg>