<svg xmlns:xlink="http://www.w3.org/1999/xlink" xmlns="http://www.w3.org/2000/svg" viewBox="0 0 329.6875 373.81196247200313" preserveAspectRatio="xMidYMid meet" class="css-zcsj26" id="geedhcad" width="329.6875"  height="373.81196247200313" ><defs id="SvgjsDefs1056"><linearGradient id="SvgjsLinearGradient1067"><stop id="SvgjsStop1068" stop-color="#834f2a" offset="0"></stop><stop id="SvgjsStop1069" stop-color="#dba173" offset="0.5"></stop><stop id="SvgjsStop1070" stop-color=" #834F2A" offset="1"></stop></linearGradient><linearGradient id="SvgjsLinearGradient1067"><stop id="SvgjsStop1068" stop-color="#834f2a" offset="0"></stop><stop id="SvgjsStop1069" stop-color="#dba173" offset="0.5"></stop><stop id="SvgjsStop1070" stop-color=" #834F2A" offset="1"></stop></linearGradient><linearGradient id="SvgjsLinearGradient1067"><stop id="SvgjsStop1068" stop-color="#834f2a" offset="0"></stop><stop id="SvgjsStop1069" stop-color="#dba173" offset="0.5"></stop><stop id="SvgjsStop1070" stop-color=" #834F2A" offset="1"></stop></linearGradient><linearGradient id="SvgjsLinearGradient1067"><stop id="SvgjsStop1068" stop-color="#834f2a" offset="0"></stop><stop id="SvgjsStop1069" stop-color="#dba173" offset="0.5"></stop><stop id="SvgjsStop1070" stop-color=" #834F2A" offset="1"></stop></linearGradient></defs><g id="SvgjsG1057" featurekey="rootContainer" transform="matrix(6.646923562870885,0,0,6.646923562870885,0.00004890838363307014,0.027741238805456748)" fill="#112D4E"><path xmlns="http://www.w3.org/2000/svg" d="M23.11 55.78L1.69 43.41A3.39 3.39 0 0 1 0 40.48V15.75a3.39 3.39 0 0 1 1.69-2.94L23.11.45a3.39 3.39 0 0 1 3.39 0l21.41 12.37a3.39 3.39 0 0 1 1.69 2.94v24.72a3.39 3.39 0 0 1-1.69 2.94L26.5 55.78a3.39 3.39 0 0 1-3.39 0z" fill="#112D4E"></path></g><g id="SvgjsG1058" featurekey="symbolFeature-0" transform="matrix(0.6944126520917704,0,0,0.6944126520917704,130.05587811478688,114.6671329420682)" fill="url(&quot;#SvgjsLinearGradient1067&quot;)"><g xmlns="http://www.w3.org/2000/svg" transform="translate(0,-952.36218)" fill="url(&quot;#SvgjsLinearGradient1067&quot;)"><path d="m 60.7828,964.36215 27.1809,0.8834 -27.1809,25.9958 z m -1.9745,1.4513 0,26.7845 -25.2681,0 c 8.6166,-8.7334 16.8796,-17.8103 25.2681,-26.7845 z m 27.7053,3.628 3.4864,1.1989 -12.5877,7.4768 z m -68.1835,2.9656 5.5226,0 12.8654,14.0705 -5.9854,6.1204 -12.4026,0 c 9e-4,-6.7347 0,-13.4597 0,-20.1909 z m -1.9746,1.2304 0,5.8364 -6.3555,0 z m 3.363,20.9796 38.627,0 -10.7675,29.43465 z m 39.0898,4.54286 0,41.20229 -12.5878,-6.8775 c 4.1972,-11.443 8.3886,-22.879 12.5878,-34.32479 z" style="text-indent:0;text-transform:none;direction:ltr;block-progression:tb;baseline-shift:baseline;color:;enable-background:accumulate;" fill="url(&quot;#SvgjsLinearGradient1067&quot;)" fill-opacity="1" stroke="none" marker="none" visibility="visible" display="inline" overflow="visible"></path></g></g><g id="SvgjsG1059" featurekey="sloganFeature-0" transform="matrix(1.0261533461796695,0,0,1.0261533461796695,58.26712077049522,229.13676554766312)" fill="#FFFFFF"><path d="M14.857 5.714 l3.4286 0 l0 1.7143 l-3.4857 12.571 l-3.4286 0 l-1.8571 -6.7429 l-1.8571 6.7429 l-3.4286 0 l-3.5143 -12.571 l0 -1.7143 l3.4286 0 l2.0857 8.4571 l2.0571 -8.4571 l2.4286 0 l2.0857 8.4571 z M33.85671428571428 8.857 l-8.4286 0 l0 2.4286 l7.2857 0 l0 3.1429 l-7.2857 0 l0 2.4286 l8.4286 0 l0 3.1429 l-10 0 l-2.1429 -2.1429 l0 -12.143 l12.143 0 l0 3.1429 z M50.85742857142857 7.856999999999999 l0 3.4857 l-1.5143 1.5143 l1.5143 1.5143 l0 3.4857 l-2.1429 2.1429 l-10.714 0 l0 -14.286 l10.714 0 z M47.14242857142857 11.2857 l0 -2.4286 l-5.4286 0 l0 2.4286 l5.4286 0 z M47.14242857142857 16.8571 l0 -2.4286 l-5.4286 0 l0 2.4286 l5.4286 0 z M73.857 5.714 l2.1429 2.1429 l0 10 l-2.1429 2.1429 l-10.429 0 l0 -14.286 l10.429 0 z M72.286 16.8571 l0 -8 l-5.1429 0 l0 8 l5.1429 0 z M92.28528571428572 8.857 l-8.4286 0 l0 2.4286 l7.2857 0 l0 3.1429 l-7.2857 0 l0 2.4286 l8.4286 0 l0 3.1429 l-10 0 l-2.1429 -2.1429 l0 -12.143 l12.143 0 l0 3.1429 z M105.714 5.714 l3.4286 0 l0 1.7143 l-4.7714 12.571 l-3.8571 0 l-4.8 -12.571 l0 -1.7143 l3.4286 0 l3.2857 9.2857 z M124.71385714285714 8.857 l-8.4286 0 l0 2.4286 l7.2857 0 l0 3.1429 l-7.2857 0 l0 2.4286 l8.4286 0 l0 3.1429 l-10 0 l-2.1429 -2.1429 l0 -12.143 l12.143 0 l0 3.1429 z M128.8571714285714 17.8571 l0 -12.143 l3.7143 0 l0 11.143 l7.7143 0 l0 3.1429 l-9.2857 0 z M154.14271428571428 5.714 l2.1429 2.1429 l0 10 l-2.1429 2.1429 l-8.2857 0 l-2.1429 -2.1429 l0 -10 l2.1429 -2.1429 l8.2857 0 z M152.57171428571428 16.8571 l0 -8 l-5.1429 0 l0 8 l5.1429 0 z M160.4286 20 l0 -14.286 l10.429 0 l2.1429 2.1429 l0 6 l-2.1429 2.1429 l-6.7143 0 l0 4 l-3.7143 0 z M164.1429 12.857099999999999 l5.1429 0 l0 -4 l-5.1429 0 l0 4 z M189.28528571428572 8.857 l-8.4286 0 l0 2.4286 l7.2857 0 l0 3.1429 l-7.2857 0 l0 2.4286 l8.4286 0 l0 3.1429 l-10 0 l-2.1429 -2.1429 l0 -12.143 l12.143 0 l0 3.1429 z M206.286 7.856999999999999 l0 5 l-2.1429 2.1429 l2.1429 3.2857 l0 1.7143 l-3.4286 0 l-2.9714 -4.8571 l-2.7429 0 l0 4.8571 l-3.7143 0 l0 -14.286 l10.714 0 z M202.571 12 l0 -3.1429 l-5.4286 0 l0 3.1429 l5.4286 0 z" fill="#FFFFFF"></path></g><g id="SvgjsG1060" featurekey="nameLeftFeature-0" transform="matrix(2.0942619185523976,0,0,2.0942619185523976,72.27746110367693,183.43443048592943)" fill="#FFFFFF"><path d="M8.32 12.440000000000001 c1.14 0.48 1.82 1.48 1.82 3.26 l0 0.68 c0 2.7 -1.46 3.62 -3.88 3.62 l-4.36 0 l-0.3 0 c-0.2 0 -0.3 -0.1 -0.3 -0.3 l0 -13.4 c0 -0.2 0.1 -0.3 0.3 -0.3 l0.42 0 l4.22 0 c2.24 0 3.3 1.12 3.3 3.5 c0 1.4 -0.42 2.38 -1.22 2.94 z M8.52 9.5 c0 -1.94 -0.46 -2.54 -2.28 -2.54 l-3.92 0 l0 5.14 l3.92 0 c1.82 0 2.28 -0.72 2.28 -2.6 z M9.12 16.38 l0 -0.68 c0 -2.26 -0.86 -2.7 -2.86 -2.7 l-3.94 0 l0 6.04 l3.94 0 c2 0 2.86 -0.4 2.86 -2.66 z M21.5 19.66 c0.1 0.2 0 0.34 -0.2 0.34 l-0.5 0 c-0.16 0 -0.26 -0.06 -0.32 -0.2 l-2.22 -4.88 c-0.3 0.04 -0.62 0.06 -0.94 0.06 l-3.96 0 l0 4.72 c0 0.2 -0.1 0.3 -0.3 0.3 l-0.42 0 c-0.2 0 -0.3 -0.1 -0.3 -0.3 l0 -13.4 c0 -0.2 0.1 -0.3 0.3 -0.3 l0.42 0 l4.26 0 c2.44 0 3.9 1.26 3.9 4 l0 0.98 c0 1.94 -0.72 3.14 -2.02 3.68 z M13.360000000000001 14.02 l3.96 0 c2 0 2.88 -0.88 2.88 -3.04 l0 -0.98 c0 -2.16 -0.88 -3.04 -2.88 -3.04 l-3.96 0 l0 7.06 z M23.640000000000004 6.300000000000001 c0 -0.2 0.1 -0.3 0.3 -0.3 l0.42 0 c0.2 0 0.3 0.1 0.3 0.3 l0 13.4 c0 0.2 -0.1 0.3 -0.3 0.3 l-0.42 0 c-0.2 0 -0.3 -0.1 -0.3 -0.3 l0 -13.4 z M36.400000000000006 19.68 c0.08 0.22 -0.04 0.32 -0.24 0.32 l-0.46 0 c-0.2 0 -0.26 -0.1 -0.34 -0.32 l-0.98 -3.16 l-5.76 0 l-0.98 3.16 c-0.06 0.22 -0.14 0.32 -0.34 0.32 l-0.46 0 c-0.2 0 -0.3 -0.1 -0.24 -0.32 l4.22 -13.36 c0.06 -0.2 0.2 -0.32 0.38 -0.32 l0.6 0 c0.18 0 0.32 0.12 0.38 0.32 z M28.900000000000006 15.620000000000001 l5.2 0 l-2.6 -8.38 z M47.02000000000001 6 c0.2 0 0.3 0.1 0.3 0.3 l0 13.4 c0 0.2 -0.1 0.3 -0.3 0.3 l-1.06 0 c-0.16 0 -0.28 -0.06 -0.36 -0.22 l-6.24 -12.84 l0 12.76 c0 0.2 -0.1 0.3 -0.3 0.3 l-0.42 0 c-0.2 0 -0.3 -0.1 -0.3 -0.3 l0 -13.4 c0 -0.2 0.1 -0.3 0.3 -0.3 l1.06 0 c0.16 0 0.28 0.06 0.36 0.22 l6.24 12.84 l0 -12.76 c0 -0.2 0.1 -0.3 0.3 -0.3 l0.42 0 z" fill="#FFFFFF"></path></g><g id="SvgjsG1061" featurekey="nameRightFeature-0" transform="matrix(2.0942619185523976,0,0,2.0942619185523976,175.71188859374064,183.43443048592943)" fill="#FFFFFF"><path d="M14.92 17.64 c0.2 0 0.3 0.1 0.3 0.3 l0 1.76 c0 0.2 -0.1 0.3 -0.3 0.3 l-7.32 0 c-0.2 0 -0.3 -0.1 -0.3 -0.3 l0 -13.4 c0 -0.2 0.1 -0.3 0.3 -0.3 l2.04 0 c0.2 0 0.3 0.1 0.3 0.3 l0 11.34 l4.98 0 z M25.240000000000002 8.36 l-5.28 0 l0 3.52 l4.02 0 c0.2 0 0.3 0.1 0.3 0.3 l0 1.76 c0 0.2 -0.1 0.3 -0.3 0.3 l-4.02 0 l0 3.4 l5.38 0 c0.2 0 0.3 0.1 0.3 0.3 l0 1.76 c0 0.2 -0.1 0.3 -0.3 0.3 l-7.72 0 c-0.2 0 -0.3 -0.1 -0.3 -0.3 l0 -13.4 c0 -0.2 0.1 -0.3 0.3 -0.3 l7.62 0 c0.2 0 0.3 0.1 0.3 0.3 l0 1.76 c0 0.2 -0.1 0.3 -0.3 0.3 z M37.44 6 c0.2 0 0.3 0.1 0.2 0.3 l-3.96 8.26 l0 5.14 c0 0.2 -0.1 0.3 -0.3 0.3 l-2.04 0 c-0.2 0 -0.3 -0.1 -0.3 -0.3 l0 -5.14 l-3.96 -8.26 c-0.1 -0.2 0 -0.3 0.2 -0.3 l2.24 0 c0.2 0 0.3 0.1 0.4 0.3 l2.44 5.52 l2.44 -5.52 c0.1 -0.2 0.2 -0.3 0.4 -0.3 l2.24 0 z" fill="#FFFFFF"></path></g></svg>