<svg xmlns:xlink="http://www.w3.org/1999/xlink" xmlns="http://www.w3.org/2000/svg" viewBox="0 0 275 311.80523883920637" height="311.80523883920637" width="275" style="width: 275px; height: 311.805px; position: absolute; top: 50%; left: 50%; transform: translate(-50%, -50%) scale(0.473372); z-index: 0; cursor: pointer;"><defs id="SvgjsDefs2711"><linearGradient id="SvgjsLinearGradient2720"><stop id="SvgjsStop2721" stop-color="#834f2a" offset="0"></stop><stop id="SvgjsStop2722" stop-color="#dba173" offset="0.5"></stop><stop id="SvgjsStop2723" stop-color=" #834F2A" offset="1"></stop></linearGradient><linearGradient id="SvgjsLinearGradient2720"><stop id="SvgjsStop2721" stop-color="#834f2a" offset="0"></stop><stop id="SvgjsStop2722" stop-color="#dba173" offset="0.5"></stop><stop id="SvgjsStop2723" stop-color=" #834F2A" offset="1"></stop></linearGradient><linearGradient id="SvgjsLinearGradient2720"><stop id="SvgjsStop2721" stop-color="#834f2a" offset="0"></stop><stop id="SvgjsStop2722" stop-color="#dba173" offset="0.5"></stop><stop id="SvgjsStop2723" stop-color=" #834F2A" offset="1"></stop></linearGradient><linearGradient id="SvgjsLinearGradient2720"><stop id="SvgjsStop2721" stop-color="#834f2a" offset="0"></stop><stop id="SvgjsStop2722" stop-color="#dba173" offset="0.5"></stop><stop id="SvgjsStop2723" stop-color=" #834F2A" offset="1"></stop></linearGradient></defs><g id="SvgjsG2712" featurekey="rootContainer" transform="matrix(5.544353303626899,0,0,5.544353303626899,0.000040795618575451865,0.02313961151545207)" fill="#112D4E"><path xmlns="http://www.w3.org/2000/svg" d="M23.11 55.78L1.69 43.41A3.39 3.39 0 0 1 0 40.48V15.75a3.39 3.39 0 0 1 1.69-2.94L23.11.45a3.39 3.39 0 0 1 3.39 0l21.41 12.37a3.39 3.39 0 0 1 1.69 2.94v24.72a3.39 3.39 0 0 1-1.69 2.94L26.5 55.78a3.39 3.39 0 0 1-3.39 0z" fill="#112D4E"></path></g><g id="SvgjsG2713" featurekey="symbolFeature-0" transform="matrix(0.7578941281817562,0,0,0.7578941281817562,100.42106377767159,91.90536297819199)" fill="url(&quot;#SvgjsLinearGradient2720&quot;)"><g xmlns="http://www.w3.org/2000/svg" transform="translate(0,-952.36218)" fill="url(&quot;#SvgjsLinearGradient2720&quot;)"><path d="m 60.7828,964.36215 27.1809,0.8834 -27.1809,25.9958 z m -1.9745,1.4513 0,26.7845 -25.2681,0 c 8.6166,-8.7334 16.8796,-17.8103 25.2681,-26.7845 z m 27.7053,3.628 3.4864,1.1989 -12.5877,7.4768 z m -68.1835,2.9656 5.5226,0 12.8654,14.0705 -5.9854,6.1204 -12.4026,0 c 9e-4,-6.7347 0,-13.4597 0,-20.1909 z m -1.9746,1.2304 0,5.8364 -6.3555,0 z m 3.363,20.9796 38.627,0 -10.7675,29.43465 z m 39.0898,4.54286 0,41.20229 -12.5878,-6.8775 c 4.1972,-11.443 8.3886,-22.879 12.5878,-34.32479 z" style="text-indent:0;text-transform:none;direction:ltr;block-progression:tb;baseline-shift:baseline;color:;enable-background:accumulate;" fill="url(&quot;#SvgjsLinearGradient2720&quot;)" fill-opacity="1" stroke="none" marker="none" visibility="visible" display="inline" overflow="visible"></path></g></g><g id="SvgjsG2714" featurekey="nameLeftFeature-0" transform="matrix(2.285714130012367,0,0,2.285714130012367,47.02857337484541,165.28571739975266)" fill="#FFFFFF"><path d="M8.32 12.440000000000001 c1.14 0.48 1.82 1.48 1.82 3.26 l0 0.68 c0 2.7 -1.46 3.62 -3.88 3.62 l-4.36 0 l-0.3 0 c-0.2 0 -0.3 -0.1 -0.3 -0.3 l0 -13.4 c0 -0.2 0.1 -0.3 0.3 -0.3 l0.42 0 l4.22 0 c2.24 0 3.3 1.12 3.3 3.5 c0 1.4 -0.42 2.38 -1.22 2.94 z M8.52 9.5 c0 -1.94 -0.46 -2.54 -2.28 -2.54 l-3.92 0 l0 5.14 l3.92 0 c1.82 0 2.28 -0.72 2.28 -2.6 z M9.12 16.38 l0 -0.68 c0 -2.26 -0.86 -2.7 -2.86 -2.7 l-3.94 0 l0 6.04 l3.94 0 c2 0 2.86 -0.4 2.86 -2.66 z M21.5 19.66 c0.1 0.2 0 0.34 -0.2 0.34 l-0.5 0 c-0.16 0 -0.26 -0.06 -0.32 -0.2 l-2.22 -4.88 c-0.3 0.04 -0.62 0.06 -0.94 0.06 l-3.96 0 l0 4.72 c0 0.2 -0.1 0.3 -0.3 0.3 l-0.42 0 c-0.2 0 -0.3 -0.1 -0.3 -0.3 l0 -13.4 c0 -0.2 0.1 -0.3 0.3 -0.3 l0.42 0 l4.26 0 c2.44 0 3.9 1.26 3.9 4 l0 0.98 c0 1.94 -0.72 3.14 -2.02 3.68 z M13.360000000000001 14.02 l3.96 0 c2 0 2.88 -0.88 2.88 -3.04 l0 -0.98 c0 -2.16 -0.88 -3.04 -2.88 -3.04 l-3.96 0 l0 7.06 z M23.640000000000004 6.300000000000001 c0 -0.2 0.1 -0.3 0.3 -0.3 l0.42 0 c0.2 0 0.3 0.1 0.3 0.3 l0 13.4 c0 0.2 -0.1 0.3 -0.3 0.3 l-0.42 0 c-0.2 0 -0.3 -0.1 -0.3 -0.3 l0 -13.4 z M36.400000000000006 19.68 c0.08 0.22 -0.04 0.32 -0.24 0.32 l-0.46 0 c-0.2 0 -0.26 -0.1 -0.34 -0.32 l-0.98 -3.16 l-5.76 0 l-0.98 3.16 c-0.06 0.22 -0.14 0.32 -0.34 0.32 l-0.46 0 c-0.2 0 -0.3 -0.1 -0.24 -0.32 l4.22 -13.36 c0.06 -0.2 0.2 -0.32 0.38 -0.32 l0.6 0 c0.18 0 0.32 0.12 0.38 0.32 z M28.900000000000006 15.620000000000001 l5.2 0 l-2.6 -8.38 z M47.02000000000001 6 c0.2 0 0.3 0.1 0.3 0.3 l0 13.4 c0 0.2 -0.1 0.3 -0.3 0.3 l-1.06 0 c-0.16 0 -0.28 -0.06 -0.36 -0.22 l-6.24 -12.84 l0 12.76 c0 0.2 -0.1 0.3 -0.3 0.3 l-0.42 0 c-0.2 0 -0.3 -0.1 -0.3 -0.3 l0 -13.4 c0 -0.2 0.1 -0.3 0.3 -0.3 l1.06 0 c0.16 0 0.28 0.06 0.36 0.22 l6.24 12.84 l0 -12.76 c0 -0.2 0.1 -0.3 0.3 -0.3 l0.42 0 z" fill="#FFFFFF"></path></g><g id="SvgjsG2715" featurekey="nameRightFeature-0" transform="matrix(2.133333062066007,0,0,2.133333062066007,168.04533423800987,168.33333774142739)" fill="#FFFFFF"><path d="M3.2600000000000002 20 l0 -15 l1.08 0 l0 13.92 l5.1 0 l0 1.08 l-6.18 0 z M10.56 20 l0 -15 l7.36 0 l0 1.16 l-6.32 0 l0 5.7 l6.26 0 l0 0.92 l-6.26 0 l0 6.06 l6.46 0 l0 1.16 l-7.5 0 z M23.32 13.14 l0 6.86 l-1.08 0 l0 -6.86 l-3.62 -8.14 l1.24 0 l2.9 6.94 l2.94 -6.94 l1.24 0 z" fill="#FFFFFF"></path></g></svg>